PathFileType	4	(X/Y/Z)	c:/Users/goper/Files/vsCode/490R/osim_files/C17/C17_Fast_03.trc
DataRate	CameraRate	NumFrames	NumMarkers	Units                	OrigDataRate	OrigDataStartFrame	OrigNumFrames
250.00	250.00	4	36	mm	250.0	938	2500
                Frame#	Time	LPSIS			LASIS			LTH1			LTH2			LTH3			LTH4			LLFE			LMFE			LSH1			LSH2			LSH3			LSH4			LLMAL			LMMAL			LCAL			LMTP5			LTOE			LMTP1			RPSIS			RASIS			RTH1			RTH2			RTH3			RTH4			RLFE			RMFE			RSH1			RSH2			RSH3			RSH4			RLMAL			RMMAL			RCAL			RMTP1			RTOE			RMTP5		
		X1	Y1	Z1	X2	Y2	Z2	X3	Y3	Z3	X4	Y4	Z4	X5	Y5	Z5	X6	Y6	Z6	X7	Y7	Z7	X8	Y8	Z8	X9	Y9	Z9	X10	Y10	Z10	X11	Y11	Z11	X12	Y12	Z12	X13	Y13	Z13	X14	Y14	Z14	X15	Y15	Z15	X16	Y16	Z16	X17	Y17	Z17	X18	Y18	Z18	X19	Y19	Z19	X20	Y20	Z20	X21	Y21	Z21	X22	Y22	Z22	X23	Y23	Z23	X24	Y24	Z24	X25	Y25	Z25	X26	Y26	Z26	X27	Y27	Z27	X28	Y28	Z28	X29	Y29	Z29	X30	Y30	Z30	X31	Y31	Z31	X32	Y32	Z32	X33	Y33	Z33	X34	Y34	Z34	X35	Y35	Z35	X36	Y36	Z36

938	3.74800	767.58319	1034.07227	238.92757	573.48676	981.23969	316.31595	527.75977	665.85529	336.58563	499.02991	632.39178	326.77631	471.31058	704.28040	334.75577	455.31238	663.32526	333.84702	408.57620	502.64050	291.59192	432.79538	502.92072	168.90256	360.82727	274.49908	279.74039	360.85898	231.08722	274.30328	421.49307	265.14929	284.97778	412.92746	224.23869	281.67404	377.45721	89.49661	257.41721	368.00607	102.71152	168.55161	451.02710	44.99378	213.64813	256.42068	48.23850	273.18839	203.56631	82.33060	209.67467	220.79356	56.22974	161.72295	765.94452	1030.49622	162.75845	596.39001	990.86493	51.86338	722.10498	721.16321	0.15769	733.24048	676.44525	6.56838	664.32465	703.29486	9.55460	682.45563	659.20972	11.47450	792.66150	458.05814	23.60822	781.49664	475.18185	147.81497	985.17090	369.11563	35.44964	1011.05762	334.28308	48.55623	939.79309	325.71960	35.43113	974.17584	295.53976	48.68301	1123.01001	201.60608	90.55489	1089.01624	198.84346	173.24321	1188.25354	242.46562	138.67052	1082.55591	55.17511	205.16986	1063.71008	63.99100	161.41281	1117.89954	56.50403	90.55539
939	3.75200	760.20276	1034.12561	238.28885	566.12610	981.75641	316.72278	518.92554	666.52905	337.46854	490.36441	633.42944	327.53357	464.34979	704.07904	335.19620	446.71060	664.52466	333.84662	401.21680	502.72250	291.31952	423.59402	504.40561	168.15448	356.75742	273.91461	279.09109	357.46982	230.56732	273.71942	417.72934	265.55646	284.39377	409.58911	224.42702	281.08163	376.30566	89.54092	256.66531	366.90814	102.10009	167.82370	450.50467	45.54119	213.56966	255.39798	47.36502	272.50903	202.68831	78.65755	207.98985	220.24521	53.22448	160.42441	758.10059	1030.69775	162.01752	587.83667	991.90259	52.07892	711.96765	719.79639	0.13629	722.68781	674.95984	6.45338	653.99475	702.43085	9.60912	671.65741	658.25171	11.46797	780.62122	456.57373	22.96130	769.03516	473.32050	147.33469	974.89526	371.16135	34.32486	1000.75024	336.28439	47.64277	929.08069	326.14069	34.50466	964.50214	297.00562	47.63703	1114.21887	205.27715	89.12251	1080.69946	201.55498	171.80597	1178.24573	249.06915	136.41060	1079.27063	57.68209	204.30464	1059.82227	64.95766	160.60208	1114.17554	59.65195	90.08459
940	3.75600	752.88525	1034.17261	237.54893	558.80768	982.58228	317.27875	510.68887	667.30310	337.95941	482.16275	634.24902	328.57700	457.51181	703.93738	335.71344	438.82990	665.76776	334.23264	394.31949	502.54196	291.07410	415.34030	506.12668	167.63136	353.25168	273.35214	278.58716	354.50879	230.00290	273.23825	414.11533	265.76797	283.67200	406.53830	224.55338	280.44553	375.24362	89.54177	255.97830	365.91473	101.58778	167.23763	450.04376	45.97808	213.46143	254.93904	46.76000	272.32520	201.83398	77.01432	207.53946	219.79169	50.70823	159.50732	750.34375	1030.68323	161.39865	579.26715	992.43591	52.39552	702.30737	718.82452	-0.23955	711.97937	673.41907	6.35756	643.46643	701.57764	9.76127	660.47607	657.10669	11.77285	768.31244	454.99460	22.51995	754.95264	470.49319	146.60085	963.67932	372.64886	33.57097	990.13574	338.16638	46.77918	918.86475	327.41724	33.82505	954.39703	298.33871	46.69764	1104.94727	209.00027	87.61997	1072.22998	204.46231	170.36447	1166.97351	255.14035	134.48982	1075.82239	60.54662	203.30809	1055.36646	65.84070	159.19661	1110.38330	62.92602	89.28352
941	3.76000	745.63721	1034.33374	236.75993	551.41943	983.51331	317.81900	503.19220	668.10889	338.65729	474.58905	634.91626	329.64801	450.80054	703.85748	336.30951	431.29797	666.49744	334.58603	387.92618	502.18164	290.77380	406.84366	507.47208	166.88966	349.90509	272.77496	278.01022	351.55298	229.39468	272.60516	410.76907	265.91711	282.92828	402.80276	224.18364	279.01740	374.47711	89.48740	255.45496	364.97989	101.11437	166.73077	449.67477	46.33738	213.32822	254.49261	46.10222	272.42319	201.03557	74.69473	207.12131	219.28433	48.78339	159.10313	742.89502	1030.51270	160.88585	571.06183	992.05511	52.63242	691.47644	716.80823	-0.04475	701.16833	671.74200	6.25579	633.23163	700.86139	9.51662	649.75397	656.22437	11.43673	754.98230	453.51208	20.66993	741.47284	468.08655	146.11978	951.69702	373.75168	33.12571	979.16644	340.04642	45.91003	908.27423	328.35815	33.01352	944.07013	299.63687	45.76635	1095.28748	212.63057	86.14031	1063.10120	207.15884	168.86781	1155.48328	261.45328	132.10011	1071.81030	63.45779	202.10963	1050.39233	66.23149	158.01750	1106.63965	66.61535	88.07204
